<mxfile host="Electron" modified="2023-08-05T09:59:18.816Z" agent="Mozilla/5.0 (Windows NT 10.0; Win64; x64) AppleWebKit/537.36 (KHTML, like Gecko) draw.io/21.6.5 Chrome/114.0.5735.243 Electron/25.3.1 Safari/537.36" etag="NJztiAz2Xu84OEgQilet" version="21.6.5" type="device">
  <diagram id="C5RBs43oDa-KdzZeNtuy" name="Page-1">
    <mxGraphModel dx="714" dy="418" grid="1" gridSize="10" guides="1" tooltips="1" connect="1" arrows="1" fold="1" page="1" pageScale="1" pageWidth="827" pageHeight="1169" math="0" shadow="0">
      <root>
        <mxCell id="WIyWlLk6GJQsqaUBKTNV-0" />
        <mxCell id="WIyWlLk6GJQsqaUBKTNV-1" parent="WIyWlLk6GJQsqaUBKTNV-0" />
        <mxCell id="7NOALjSgeBlPAl4TsL1B-9" style="edgeStyle=orthogonalEdgeStyle;rounded=0;orthogonalLoop=1;jettySize=auto;html=1;exitX=0.5;exitY=1;exitDx=0;exitDy=0;entryX=0.5;entryY=0;entryDx=0;entryDy=0;" parent="WIyWlLk6GJQsqaUBKTNV-1" source="7NOALjSgeBlPAl4TsL1B-0" target="coi9tZsL-MmGuks0euYL-1" edge="1">
          <mxGeometry relative="1" as="geometry">
            <mxPoint x="430" y="280" as="targetPoint" />
          </mxGeometry>
        </mxCell>
        <mxCell id="7NOALjSgeBlPAl4TsL1B-0" value="INICIO" style="ellipse;whiteSpace=wrap;html=1;" parent="WIyWlLk6GJQsqaUBKTNV-1" vertex="1">
          <mxGeometry x="385" y="220" width="80" height="50" as="geometry" />
        </mxCell>
        <mxCell id="7NOALjSgeBlPAl4TsL1B-1" value="FIN" style="ellipse;whiteSpace=wrap;html=1;" parent="WIyWlLk6GJQsqaUBKTNV-1" vertex="1">
          <mxGeometry x="385" y="600" width="80" height="50" as="geometry" />
        </mxCell>
        <mxCell id="coi9tZsL-MmGuks0euYL-8" style="edgeStyle=orthogonalEdgeStyle;rounded=0;orthogonalLoop=1;jettySize=auto;html=1;exitX=0;exitY=0.5;exitDx=0;exitDy=0;entryX=0.5;entryY=0;entryDx=0;entryDy=0;" edge="1" parent="WIyWlLk6GJQsqaUBKTNV-1" source="7NOALjSgeBlPAl4TsL1B-2" target="coi9tZsL-MmGuks0euYL-5">
          <mxGeometry relative="1" as="geometry" />
        </mxCell>
        <mxCell id="coi9tZsL-MmGuks0euYL-9" style="edgeStyle=orthogonalEdgeStyle;rounded=0;orthogonalLoop=1;jettySize=auto;html=1;exitX=1;exitY=0.5;exitDx=0;exitDy=0;entryX=0.5;entryY=0;entryDx=0;entryDy=0;" edge="1" parent="WIyWlLk6GJQsqaUBKTNV-1" source="7NOALjSgeBlPAl4TsL1B-2" target="coi9tZsL-MmGuks0euYL-6">
          <mxGeometry relative="1" as="geometry" />
        </mxCell>
        <mxCell id="coi9tZsL-MmGuks0euYL-12" style="edgeStyle=orthogonalEdgeStyle;rounded=0;orthogonalLoop=1;jettySize=auto;html=1;exitX=0.5;exitY=0;exitDx=0;exitDy=0;entryX=0.478;entryY=0.871;entryDx=0;entryDy=0;entryPerimeter=0;startArrow=classic;startFill=1;endArrow=none;endFill=0;" edge="1" parent="WIyWlLk6GJQsqaUBKTNV-1" source="7NOALjSgeBlPAl4TsL1B-2" target="coi9tZsL-MmGuks0euYL-4">
          <mxGeometry relative="1" as="geometry" />
        </mxCell>
        <mxCell id="7NOALjSgeBlPAl4TsL1B-2" value="¿Aún tengo sueño?" style="rhombus;whiteSpace=wrap;html=1;" parent="WIyWlLk6GJQsqaUBKTNV-1" vertex="1">
          <mxGeometry x="350" y="440" width="150" height="60" as="geometry" />
        </mxCell>
        <mxCell id="7NOALjSgeBlPAl4TsL1B-15" style="edgeStyle=orthogonalEdgeStyle;rounded=0;orthogonalLoop=1;jettySize=auto;html=1;exitX=0;exitY=1;exitDx=0;exitDy=0;entryX=0.5;entryY=0;entryDx=0;entryDy=0;" parent="WIyWlLk6GJQsqaUBKTNV-1" source="7NOALjSgeBlPAl4TsL1B-7" target="7NOALjSgeBlPAl4TsL1B-1" edge="1">
          <mxGeometry relative="1" as="geometry" />
        </mxCell>
        <mxCell id="7NOALjSgeBlPAl4TsL1B-7" value="" style="ellipse;whiteSpace=wrap;html=1;aspect=fixed;" parent="WIyWlLk6GJQsqaUBKTNV-1" vertex="1">
          <mxGeometry x="420" y="570" width="10" height="10" as="geometry" />
        </mxCell>
        <mxCell id="W6uT_uMWIPKHwMX3RYvY-0" value="Verdadero" style="text;html=1;strokeColor=none;fillColor=none;align=center;verticalAlign=middle;whiteSpace=wrap;rounded=0;" parent="WIyWlLk6GJQsqaUBKTNV-1" vertex="1">
          <mxGeometry x="290" y="440" width="60" height="30" as="geometry" />
        </mxCell>
        <mxCell id="W6uT_uMWIPKHwMX3RYvY-1" value="Falso" style="text;html=1;strokeColor=none;fillColor=none;align=center;verticalAlign=middle;whiteSpace=wrap;rounded=0;" parent="WIyWlLk6GJQsqaUBKTNV-1" vertex="1">
          <mxGeometry x="491" y="440" width="60" height="30" as="geometry" />
        </mxCell>
        <mxCell id="coi9tZsL-MmGuks0euYL-13" style="edgeStyle=orthogonalEdgeStyle;rounded=0;orthogonalLoop=1;jettySize=auto;html=1;exitX=0.5;exitY=1;exitDx=0;exitDy=0;entryX=0.459;entryY=-0.036;entryDx=0;entryDy=0;entryPerimeter=0;" edge="1" parent="WIyWlLk6GJQsqaUBKTNV-1" source="coi9tZsL-MmGuks0euYL-1" target="coi9tZsL-MmGuks0euYL-4">
          <mxGeometry relative="1" as="geometry" />
        </mxCell>
        <mxCell id="coi9tZsL-MmGuks0euYL-1" value="Despertarse" style="rounded=0;whiteSpace=wrap;html=1;" vertex="1" parent="WIyWlLk6GJQsqaUBKTNV-1">
          <mxGeometry x="370" y="290" width="110" height="50" as="geometry" />
        </mxCell>
        <mxCell id="coi9tZsL-MmGuks0euYL-4" value="&quot;Buenos días&quot; - a mi compañero de piso." style="shape=document;whiteSpace=wrap;html=1;boundedLbl=1;" vertex="1" parent="WIyWlLk6GJQsqaUBKTNV-1">
          <mxGeometry x="367.5" y="360" width="120" height="60" as="geometry" />
        </mxCell>
        <mxCell id="coi9tZsL-MmGuks0euYL-10" style="edgeStyle=orthogonalEdgeStyle;rounded=0;orthogonalLoop=1;jettySize=auto;html=1;exitX=0.5;exitY=1;exitDx=0;exitDy=0;entryX=0;entryY=0.5;entryDx=0;entryDy=0;" edge="1" parent="WIyWlLk6GJQsqaUBKTNV-1" source="coi9tZsL-MmGuks0euYL-5" target="7NOALjSgeBlPAl4TsL1B-7">
          <mxGeometry relative="1" as="geometry" />
        </mxCell>
        <mxCell id="coi9tZsL-MmGuks0euYL-5" value="Tomar café con cafeina" style="rounded=0;whiteSpace=wrap;html=1;" vertex="1" parent="WIyWlLk6GJQsqaUBKTNV-1">
          <mxGeometry x="269" y="500" width="102" height="50" as="geometry" />
        </mxCell>
        <mxCell id="coi9tZsL-MmGuks0euYL-11" style="edgeStyle=orthogonalEdgeStyle;rounded=0;orthogonalLoop=1;jettySize=auto;html=1;exitX=0.5;exitY=1;exitDx=0;exitDy=0;entryX=1;entryY=0.5;entryDx=0;entryDy=0;" edge="1" parent="WIyWlLk6GJQsqaUBKTNV-1" source="coi9tZsL-MmGuks0euYL-6" target="7NOALjSgeBlPAl4TsL1B-7">
          <mxGeometry relative="1" as="geometry" />
        </mxCell>
        <mxCell id="coi9tZsL-MmGuks0euYL-6" value="Tomar café descafeinado" style="rounded=0;whiteSpace=wrap;html=1;" vertex="1" parent="WIyWlLk6GJQsqaUBKTNV-1">
          <mxGeometry x="470" y="500" width="102" height="50" as="geometry" />
        </mxCell>
      </root>
    </mxGraphModel>
  </diagram>
</mxfile>
